<?xml version="1.0" encoding="utf-8"?>
<!-- Generator: Adobe Illustrator 23.0.1, SVG Export Plug-In . SVG Version: 6.00 Build 0)  -->
<svg version="1.1" id="Layer_1" focusable="false" xmlns="http://www.w3.org/2000/svg" xmlns:xlink="http://www.w3.org/1999/xlink"
	 x="0px" y="0px" viewBox="0 0 512 512" style="enable-background:new 0 0 512 512;" xml:space="preserve">
<style type="text/css">
	.st0{fill:#008080;}
</style>
<path class="st0" d="M504.5,171.9l-36.2-36.4c-10-10.1-26.2-10.1-36.2,0L192,377L79.9,264.3c-10-10.1-26.2-10.1-36.2,0L7.5,300.7
	c-10,10-10,26.4,0,36.4l166.4,167.4c10,10.1,26.2,10.1,36.2,0l294.4-296.1C514.5,198.3,514.5,182,504.5,171.9L504.5,171.9z
	 M166.6,282.7c6.8,7,18.2,7,25.2,0.2L403.9,72.6c7-6.8,7-18.2,0.2-25.2l-42-42.1c-6.8-7-18.2-7-25.2-0.2L179.7,161.2l-68.2-68.8
	c-6.8-7-18.2-7-25.2-0.2L44.1,134c-7,6.8-7,18.2-0.2,25.2L166.6,282.7L166.6,282.7z"/>
</svg>
