<?xml version="1.0" encoding="utf-8"?>
<!-- Generator: Adobe Illustrator 23.0.1, SVG Export Plug-In . SVG Version: 6.00 Build 0)  -->
<svg version="1.1" id="Layer_1" focusable="false" xmlns="http://www.w3.org/2000/svg" xmlns:xlink="http://www.w3.org/1999/xlink"
	 x="0px" y="0px" viewBox="0 0 448 512" style="enable-background:new 0 0 448 512;" xml:space="preserve">
<style type="text/css">
	.st0{fill:#008080;}
</style>
<path class="st0" d="M392,32H56C25.1,32,0,57.1,0,88v336c0,30.9,25.1,56,56,56h336c30.9,0,56-25.1,56-56V88
	C448,57.1,422.9,32,392,32z M283.7,114.1c0-19.8,29.9-19.8,29.9,0v199.5c0,19.8-29.9,19.8-29.9,0V114.1z M209.1,106.6
	c0-19.8,29.9-19.8,29.9,0v216.5c0,19.8-29.9,19.8-29.9,0V106.6z M134.4,114.1c0-19.8,29.9-19.8,29.9,0v199.5
	c0,19.8-29.9,19.8-29.9,0V114.1z M59.7,144c0-19.8,29.9-19.8,29.9,0v134.3c0,19.8-29.9,19.8-29.9,0C59.7,278.3,59.7,144,59.7,144z
	 M383.1,371.8c-72.8,63-241.7,65.4-318.1,0c-15-12.8,4.4-35.5,19.4-22.7c65.9,55.3,216.1,53.9,279.3,0
	C378.6,336.2,398,358.9,383.1,371.8L383.1,371.8z M388.3,278.3c0,19.8-29.9,19.8-29.9,0V144c0-19.8,29.9-19.8,29.9,0V278.3z"/>
</svg>
